<?xml version="1.0" encoding="UTF-8"?>
<svg xmlns="http://www.w3.org/2000/svg" viewBox="0 0 653 776.4" style="enable-background:new 0 0 653 776.4" xml:space="preserve"><path d="M377.2 37.7c2.4 9 4.3 18.4 5.9 28.1 1.6 9.8 2.7 20 3.6 30.6.9 10.7 1.5 21.8 2 33.3.4 11.6.7 23.7.9 36.2.5 28.9-1.7 52.3-5.5 71.7-3.9 20.1-9.5 35.9-15.7 49.2-6.3 13.7-13.2 24.6-19.3 35.1-6.3 10.7-11.8 20.7-15.2 32.4-.1.3-.2.6-.4.9-.1.3-.3.6-.4.9-.1.3-.2.6-.4.9-.1.3-.2.6-.4.9l68.7-33v-.1c3.5-22 5.8-42.6 7-61.9 1.2-18.7 1.5-36.2 1.2-52.5-.3-15.9-1.3-30.7-2.6-44.3-1.3-13.4-3-25.7-4.9-36.8-1.4-8.4-3-16.7-4.8-24.7-1.8-8-3.7-15.8-5.8-23.4-2.1-7.6-4.3-15-6.7-22.2-2.1-7.5-4.6-14.5-7.2-21.3" style="opacity:.7"/><path d="m348.4 504.3.9 3.6c.9 4.3.8 8.4-.1 12.1-.9 3.6-2.5 6.8-4.7 9.4-2.1 2.5-4.7 4.5-7.7 5.7-2.9 1.2-6.1 1.8-9.5 1.6-3.3-.2-6.6-1-9.8-2.4-3.1-1.3-6-3.2-8.7-5.4-2.7-2.2-5.1-4.8-7.2-7.7-2.1-2.9-3.8-6.2-5-9.6-.1-.2-.2-.4-.2-.6-.1-.2-.1-.4-.2-.6-.1-.2-.1-.4-.2-.6-.1-.2-.1-.4-.2-.6 0 0 0-.1-.1-.1v-.1s0-.1-.1-.1v-.1c1.1.7 2.3 1.4 3.3 2.1 1.1.8 2.2 1.6 3.1 2.5 1 .9 1.9 1.9 2.6 3 .7 1.1 1.3 2.3 1.8 3.6 0 .2.1.4.2.5.1.2.1.4.1.5 0 .2.1.3.1.5s.1.3.1.5c1.4 1.2 2.8 2.4 4.3 3.5s3 2.1 4.5 3c1.5.9 3.1 1.6 4.8 2.1 1.7.5 3.4.9 5.1.9 1.8.1 3.2-.2 4.4-.8 1.2-.6 2.2-1.4 3-2.5.9-1 1.6-2.3 2.4-3.6.8-1.3 1.6-2.7 2.5-4.1-.1-.2-.2-.5-.3-.7-.1-.2-.2-.5-.3-.7-.1-.2-.2-.5-.3-.7-.1-.3-.1-.5-.2-.8-.4-1.4-.1-2.8.5-4 .6-1.2 1.6-2.4 2.8-3.5 1.2-1.1 2.6-2.1 4-3.1 1.8-1 3.2-1.9 4.3-2.7M214.5 336.9c-.4.2-.7.3-1.1.5-.3.2-.7.4-1 .5-.3.2-.7.4-1 .6-.3.2-.7.4-1 .7-1.9 1.2-3.6 2.5-5.3 3.8-1.6 1.3-3.2 2.7-4.6 4.2-1.4 1.6-2.8 3.3-4.1 5.3-1.3 2-2.5 4.4-3.6 7.1 3.2-.5 6.5-.5 9.8 0 3.3.4 6.7 1.4 10 2.7 3.4 1.4 6.8 3.2 10.2 5.4 3.4 2.3 6.9 5 10.3 8.1l-13.7-40.5-1.2.3c-.4.1-.8.2-1.2.4-.4.1-.8.3-1.2.4-.5.1-.9.3-1.3.5m11.1-2.3L239 374l29.9.4c-3.1-6.3-6.5-11.9-10-16.8s-7.1-9-10.8-12.4c-3.7-3.4-7.4-6-11.2-7.8-3.8-1.6-7.6-2.6-11.3-2.8m17.7 51.9c4.6 5.4 9.1 11.7 13.5 18.6 4.4 7 8.7 14.7 12.7 23.1 4.1 8.5 8 17.7 11.6 27.4 3.6 9.9 7 20.3 10 31.3.2-4.8.3-9.7.2-14.7-.1-5-.3-10.1-.8-15.2-.4-5.2-1-10.4-1.7-15.6-.7-5.2-1.6-10.5-2.7-15.7-.7-3.5-1.5-7-2.3-10.3-.8-3.4-1.7-6.6-2.7-9.8-.9-3.2-1.9-6.3-3-9.3-1-3-2.1-5.9-3.3-8.7l-31.5-1.1M175.7 96.3c.9 8.1 1.8 16.3 2.9 24.6 1.1 8.3 2.2 16.7 3.5 25.2 1.3 8.5 2.7 17.1 4.2 25.7 1.5 8.7 3.1 17.4 4.8 26.2 2.2 11.5 4.6 22.8 7.1 33.8 2.5 11.1 5.1 21.9 7.8 32.3 2.7 10.5 5.5 20.8 8.4 30.7 2.9 10 5.9 19.6 9 28.9 1.3-.2 2.7-.3 4-.3 1.4 0 2.7.1 4.1.4 1.4.2 2.7.6 4.1 1 1.4.4 2.7 1 4.1 1.6-3.1-7.4-6.2-15-9.2-22.9-3-7.8-6-15.8-8.9-24-2.9-8.2-5.7-16.5-8.4-25s-5.4-17.1-8-26c-3.4-11.5-6.5-23-9.4-34.4-2.9-11.3-5.6-22.5-8-33.6-2.4-11-4.7-21.9-6.7-32.6-2.1-10.8-3.9-21.3-5.4-31.6m266.1 168.3c-1.8.3-3.5.6-5.3 1-1.8.4-3.5.8-5.2 1.2-1.7.4-3.5.9-5.2 1.4-1.7.5-3.4 1.1-5.1 1.6l-5.6 50c5.7-6.4 11.6-12.4 17.7-17.9 6.1-5.5 12.3-10.5 18.8-15.1 6.4-4.5 12.9-8.6 19.6-12.3 6.6-3.6 13.4-6.8 20.3-9.5-4-1.2-7.9-2.1-11.8-2.6-3.9-.5-7.8-.7-11.7-.7-4 0-8 .3-12.3.8-4.3.5-8.7 1.1-13.5 1.9H441.9c.1.2 0 .2-.1.2m-42.7 76-72.6 36.1c-1 4-1.8 8.1-2.5 12.2s-1.1 8.3-1.5 12.5c-.3 4.2-.5 8.5-.4 12.8.1 4.3.3 8.6.7 13 .7 6.5 1.8 12.8 3.2 18.9 1.5 6.1 3.4 12.1 5.6 17.8 2.3 5.7 4.9 11.2 7.9 16.4 3 5.2 6.3 10.1 9.9 14.7.3-15.1 1.8-29.9 4.3-44.3 2.5-14.1 6-27.8 10.4-41 4.3-12.9 9.5-25.2 15.4-36.9 6-11.3 12.5-22.1 19.6-32.2M168.2 677.5c0 15.1-11 28.9-39.9 28.9-27.5 0-39.9-13.8-39.9-31.7l1.4-1.4h16.5l1.4 1.4c0 9.6 5.5 15.1 22 15.1 12.4 0 19.3-4.1 19.3-12.4 0-9.6-5.5-12.4-24.8-15.1-19.3-2.8-34.4-9.6-34.4-28.9 0-13.8 11-26.2 37.2-26.2 26.2 0 37.2 12.4 37.2 28.9l-1.4 1.4h-16.5l-1.4-1.4c0-8.3-4.1-12.4-19.3-12.4-12.4 0-16.5 4.1-16.5 9.6 0 8.3 5.5 11 24.8 13.8 19.2 2.9 34.3 11.1 34.3 30.4zm77.1-6.9c0 22-13.8 35.8-30.3 35.8-12.4 0-17.9-6.9-17.9-6.9h-1.4v31.7l-1.4 1.4h-16.5l-1.4-1.4v-93.6l1.4-1.4H193l1.4 1.4 1.4 4.1h1.4s5.5-6.9 17.9-6.9c16.4 0 30.2 13.8 30.2 35.8zm-19.3 0c0-11-4.1-19.3-15.1-19.3s-15.1 8.3-15.1 19.3 4.1 19.3 15.1 19.3 15.1-8.3 15.1-19.3zm63.4-34.4c-12.4 0-15.1 5.5-15.1 5.5h-1.4l-1.4-4.1-1.4-1.4H255l-1.4 1.4v66.1l1.4 1.4h16.5l1.4-1.4v-33c0-12.4 4.1-17.9 15.1-17.9h9.6l1.4-1.4v-13.8l-1.4-1.4h-8.2zm67.4 0-1.4 1.4-16.5 46.8h-1.4L321 637.6l-1.4-1.4h-12.4l-1.4 1.4v13.8l22 53.7v1.4c-1.4 4.1-2.8 5.5-9.6 5.5h-6.9l-1.4 1.4v13.8l1.4 1.4h6.9c19.3 0 24.8-8.3 30.3-22l22-55.1v-13.8l-1.4-1.4h-12.3zm64.7 31.7 16.5-16.5v-13.8l-1.4-1.4h-8.3l-2.8 1.4-27.5 27.5h-1.4V610l-1.4-1.4h-16.5l-1.4 1.4v93.6l1.4 1.4h16.5l1.4-1.4V694l1.4-2.8 8.3-8.3h1.4l19.3 20.6 2.8 1.4h8.3l1.4-1.4v-13.8l-17.9-20.6v-1.2zm88.1 2.7v5.5l-1.4 1.4h-42.7l-1.4 1.4c0 2.8 2.8 11 13.8 11 4.1 0 8.3-1.4 9.6-4.1l1.4-1.4h16.5l1.4 1.4c-1.4 8.3-8.3 20.6-28.9 20.6-23.4 0-34.4-16.5-34.4-35.8 0-19.3 11-35.8 33-35.8s33.1 16.6 33.1 35.8zm-20.7-8.2c0-1.4-1.4-11-12.4-11s-12.4 9.6-12.4 11l1.4 1.4h22l1.4-1.4zm74.3-26.2H555c-12.4 0-15.1 5.5-15.1 5.5h-1.4l-1.4-4.1-1.4-1.4h-15.1l-1.4 1.4v66.1l1.4 1.4h16.5l1.4-1.4v-33c0-12.4 4.1-17.9 15.1-17.9h9.6l1.4-1.4v-13.8l-1.4-1.4z"/></svg>